<svg xmlns="http://www.w3.org/2000/svg"><defs><font id="Montserrat-Black" horiz-adv-x="0"><font-face font-family="Montserrat Black" font-weight="900" ascent="800" bbox="-763 -240 1196 1011" cap-height="700" descent="-200" panose-1="0 0 10 0 0 0 0 0 0 0" underline-position="-100" underline-thickness="50" unicode-range="U+0020-2044" x-height="547"/><glyph glyph-name="space" horiz-adv-x="300"/><glyph d="M22 700h270l-45-432H67zM62 25q-37 35-37 85 0 51 37 84.5t95 33.5 95-33.5 37-84.5q0-50-37-85t-95-35-95 35z" glyph-name="exclam" horiz-adv-x="314" unicode="!"/><glyph d="M32 700h190l-15-300H47zm235 0h190l-15-300H282z" glyph-name="quotedbl" horiz-adv-x="489" unicode="&quot;"/><glyph d="m587 413-15-126h121V137H553L536 0H376l17 137h-99L277 0H117l17 137H13v150h140l15 126H47v150h140l17 137h160l-17-137h99l17 137h160l-17-137h121V413H587zm-160 0h-99l-15-126h99z" glyph-name="numbersign" horiz-adv-x="740" unicode="#"/><glyph d="M583.5 73.5Q523 11 411-9v-111H270v106q-75 4-143.5 23T13 56l76 172q50-29 112-46.5T320 164q49 0 70 9.5t21 28.5q0 22-27.5 33T293 259q-81 17-135 36.5t-94 64T24 480q0 88 63.5 151T270 711v109h141V713q120-11 203-58l-71-171q-103 52-195 52-91 0-91-44 0-21 27-31.5t89-22.5q80-15 135-34.5t95.5-63.5T644 220q0-84-60.5-146.5z" glyph-name="dollar" horiz-adv-x="657" unicode="$"/><glyph d="M68 372q-52 52-52 143 0 61 24 105t66.5 67 95.5 23 95.5-23 66.5-67 24-105q0-91-52-143t-134-52-134 52zm545 328h169L304 0H135zM233.5 448.5Q246 469 246 515t-12.5 66.5T202 602t-31.5-20.5T158 515t12.5-66.5T202 428t31.5 20.5zM581 42q-52 52-52 143 0 61 24 105t66.5 67 95.5 23 95.5-23 66.5-67 24-105q0-91-52-143T715-10 581 42zm165.5 76.5Q759 139 759 185t-12.5 66.5T715 272t-31.5-20.5T671 185t12.5-66.5T715 98t31.5 20.5z" glyph-name="percent" horiz-adv-x="917" unicode="%"/><glyph d="m681 180 66-56L626-13l-74 64Q448-16 318-16q-83 0-149.5 26.5T64 83 26 187q0 66 33 114.5T162 389q-60 64-60 134 0 56 31.5 98.5T222 688t132 24q69 0 121.5-21.5t81.5-62 29-93.5-29.5-94.5T465 364l74-63q18 40 27 91l181-54q-20-88-66-158zM319.5 555Q307 544 307 526q0-13 7.5-25t27.5-31q55 30 55 60 0 16-11 26t-31 10q-23 0-35.5-11zM414 169 286 279q-39-28-39-67 0-26 23.5-43t64.5-17q40 0 79 17z" glyph-name="ampersand" horiz-adv-x="777" unicode="&amp;"/><glyph d="M32 700h190l-15-300H47z" glyph-name="quotesingle" horiz-adv-x="254" unicode="'"/><glyph d="M81 16.5Q47 137 47 274t34 257.5T180 742h216q-67-119-97.5-232.5T268 274t30.5-235.5T396-194H180q-65 90-99 210.5z" glyph-name="parenleft" horiz-adv-x="381" unicode="("/><glyph d="M-15-194Q52-75 82.5 38.5T113 274 82.5 509.5-15 742h216q65-90 99-210.5T334 274 300 16.5 201-194H-15z" glyph-name="parenright" horiz-adv-x="381" unicode=")"/><glyph d="m371 532 96-51-69-112-98 60 3-107H169l3 107-98-60L6 481l96 51-96 51 68 112 98-60-3 107h134l-3-107 98 60 69-112z" glyph-name="asterisk" horiz-adv-x="473" unicode="*"/><glyph d="M565 265H400V105H220v160H55v170h165v160h180V435h165V265z" glyph-name="plus" horiz-adv-x="620" unicode="+"/><glyph d="M247 213q37-35 37-93 0-26-7-52t-32-79l-70-149H35L85 9Q54 24 37 52.5T20 120q0 58 37 93t95 35 95-35z" glyph-name="comma" horiz-adv-x="304" unicode=","/><glyph d="M45 374h300V204H45v170z" glyph-name="hyphen" horiz-adv-x="390" unicode="-"/><glyph d="M57.5 26.5Q20 63 20 120t37.5 92.5T152 248t94.5-35.5T284 120t-37.5-93.5T152-10 57.5 26.5z" glyph-name="period" horiz-adv-x="304" unicode="."/><glyph d="M290 842h200L160-100H-40z" glyph-name="slash" horiz-adv-x="440" unicode="/"/><glyph d="M181.5 27.5Q110 71 69.5 153.5T29 350t40.5 196.5 112 126T346 716t164.5-43.5 112-126T663 350t-40.5-196.5-112-126T346-16 181.5 27.5zM426 350q0 177-80 177t-80-177 80-177 80 177z" glyph-name="zero" horiz-adv-x="692" unicode="0"/><glyph d="M361 700V0H125v522H5v178h356z" glyph-name="one" horiz-adv-x="418" unicode="1"/><glyph d="M589 183V0H28v145l253 234q33 31 44 53t11 43q0 26-17.5 40.5T268 530q-32 0-60-17t-43-48l-178 89q40 75 117 118.5T290 716q83 0 147-27t100-77 36-115q0-58-24.5-108.5T453 274l-100-91h236z" glyph-name="two" horiz-adv-x="608" unicode="2"/><glyph d="M546.5 350.5Q590 298 590 224q0-63-34.5-117.5T449 18 270-16q-74 0-147.5 16T-6 47l80 174q43-25 92.5-38t95.5-13q41 0 66 14t25 40q0 48-83 48h-93v145l103 105H30v178h522V555L422 423q81-20 124.5-72.5z" glyph-name="three" horiz-adv-x="614" unicode="3"/><glyph d="M708 120h-93V0H386v120H23v150l297 430h242L298 303h95v107h222V303h93V120z" glyph-name="four" horiz-adv-x="712" unicode="4"/><glyph d="M531.5 391.5Q601 330 601 230q0-66-34.5-121.5T460 18.5 281-16q-74 0-147.5 16T5 47l80 174q44-25 92.5-38t94.5-13q41 0 66.5 14.5T364 225q0 25-23 37.5T258 275H55l35 425h465V522H284l-5-69h36q147 0 216.5-61.5z" glyph-name="five" horiz-adv-x="619" unicode="5"/><glyph d="M528 425q55-28 88-79t33-117q0-73-37.5-129T509 14 365-16q-101 0-176.5 39T71 139 29 328q0 120 48.5 208t136 134T417 716q63 0 120-14.5t97-40.5l-85-165q-52 37-127 37-61 0-100.5-30.5T270 414q55 39 139 39 64 0 119-28zM401 166q20 19 20 52t-20 52.5-52 19.5-52-19.5-20-52.5 20-52 52-19 52 19z" glyph-name="six" horiz-adv-x="661" unicode="6"/><glyph d="M620 700V555L387 0H129l222 517H216V415H21v285h599z" glyph-name="seven" horiz-adv-x="645" unicode="7"/><glyph d="M628.5 300.5Q653 260 653 208q0-67-39.5-118t-111-78.5T339-16 175.5 11.5 64.5 90 25 208q0 52 24.5 92.5T119 369q-69 55-69 138 0 63 36.5 110t102 73T339 716t150.5-26 102-73T628 507q0-83-69-138 45-28 69.5-68.5zM298.5 541Q283 525 283 497t15.5-44 40.5-16 40.5 16 15.5 44-15.5 44-40.5 16-40.5-16zm96-378q21.5 20 21.5 53t-21.5 53-55.5 20-55.5-20-21.5-53 21.5-53 55.5-20 55.5 20z" glyph-name="eight" horiz-adv-x="678" unicode="8"/><glyph d="M472.5 677Q548 638 590 561t42-189q0-120-48.5-208t-136-134T244-16q-63 0-120 14.5T27 39l85 165q52-37 127-37 61 0 100.5 30.5T391 286q-55-39-139-39-64 0-119 28t-88 79-33 117q0 73 37.5 129T152 686t144 30q101 0 176.5-39zM364 429.5q20 19.5 20 52.5t-20 52-52 19-52-19-20-52 20-52.5 52-19.5 52 19.5z" glyph-name="nine" horiz-adv-x="661" unicode="9"/><glyph d="M57.5 335.5Q20 372 20 429t37.5 92.5T152 557t94.5-35.5T284 429t-37.5-93.5T152 299t-94.5 36.5zm0-309Q20 63 20 120t37.5 92.5T152 248t94.5-35.5T284 120t-37.5-93.5T152-10 57.5 26.5z" glyph-name="colon" horiz-adv-x="304" unicode=":"/><glyph d="M57.5 335.5Q20 372 20 429t37.5 92.5T152 557t94.5-35.5T284 429t-37.5-93.5T152 299t-94.5 36.5zM247 213q37-35 37-93 0-26-7-52t-32-79l-70-149H35L85 9Q54 24 37 52.5T20 120q0 58 37 93t95 35 95-35z" glyph-name="semicolon" horiz-adv-x="304" unicode=";"/><glyph d="M565 454 262 350l303-104V76L55 261v178l510 185V454z" glyph-name="less" horiz-adv-x="620" unicode="&lt;"/><glyph d="M55 565h510V395H55v170zm0-260h510V135H55v170z" glyph-name="equal" horiz-adv-x="620" unicode="="/><glyph d="M565 439V261L55 76v170l303 104L55 454v170z" glyph-name="greater" horiz-adv-x="620" unicode="&gt;"/><glyph d="M228 346.5q21 31.5 60 68.5 25 24 36.5 39t11.5 32q0 22-19 34.5T269 533q-32 0-60-18.5T165 465l-178 89q40 76 118.5 119T299 716q122 0 198-50t76-141q0-42-14.5-73.5t-34.5-53-51-47.5q-32-28-46-45t-14-38H207q0 47 21 78.5zM215 25q-37 35-37 85 0 51 37 84.5t95 33.5 95-33.5 37-84.5q0-50-37-85t-95-35-95 35z" glyph-name="question" horiz-adv-x="606" unicode="?"/><glyph d="M777.5 656.5Q887 599 947.5 500t60.5-219q0-92-31.5-157.5t-85-99T773-9q-57 0-97 22t-61 65Q571-9 463-9q-55 0-103.5 30.5T281 109t-30 131 29.5 130.5 78 87T463 488q79 0 123-49v40h192V193q0-55 39-55 24 0 37.5 31T868 278q0 90-42.5 160t-120 109.5T527 587t-179-43.5-121-120T184 253q0-97 42.5-173.5T346-40t177-43q105 0 202 44l42-123q-45-22-111.5-35T523-210q-147 0-259.5 60.5T90 16.5 29 253q0 129 61.5 234T265 653t262 61q141 0 250.5-57.5zM570 172q20 24 20 68t-20 67.5-52 23.5-51.5-23.5T447 240t19.5-68 51.5-24 52 24z" glyph-name="at" horiz-adv-x="1037" unicode="@"/><glyph d="M534 122H268L221 0H-19l306 700h232L825 0H581zm-65 170-68 176-68-176h136z" glyph-name="A" horiz-adv-x="806" unicode="A"/><glyph d="M713 299q34-44 34-106 0-92-76-142.5T451 0H57v700h374q140 0 211.5-50T714 517q0-49-24.5-88T617 366q62-23 96-67zM289 535V431h110q77 0 77 52t-77 52H289zm220-315q0 55-78 55H289V165h142q78 0 78 55z" glyph-name="B" horiz-adv-x="773" unicode="B"/><glyph d="M219 30.5Q130 77 79.5 160.5T29 350t50.5 189.5 139.5 130T419 716q102 0 182-36t132-104L584 443q-65 82-153 82-74 0-119-47.5T267 350t45-127.5T431 175q88 0 153 82l149-133Q681 56 601 20T419-16q-111 0-200 46.5z" glyph-name="C" horiz-adv-x="744" unicode="C"/><glyph d="M57 700h345q117 0 206.5-42.5t139-121.5T797 350t-49.5-186-139-121.5T402 0H57v700zm335-516q76 0 121.5 43.5T559 350t-45.5 122.5T392 516h-99V184h99z" glyph-name="D" horiz-adv-x="826" unicode="D"/><glyph d="M639 178V0H57v700h569V522H289v-82h296V270H289v-92h350z" glyph-name="E" horiz-adv-x="673" unicode="E"/><glyph d="M293 522V402h292V224H293V0H57v700h569V522H293z" glyph-name="F" horiz-adv-x="644" unicode="F"/><glyph d="M520 369h205V73Q663 30 581 7T420-16q-112 0-201 46.5t-139.5 130T29 350t50.5 189.5 141 130T425 716q103 0 184.5-34.5T745 581L594 448q-66 77-157 77-78 0-124-47t-46-128q0-79 45.5-127T434 175q45 0 86 17v177z" glyph-name="G" horiz-adv-x="769" unicode="G"/><glyph d="M747 700V0H511v258H293V0H57v700h236V452h218v248h236z" glyph-name="H" horiz-adv-x="804" unicode="H"/><glyph d="M57 700h236V0H57v700z" glyph-name="I" horiz-adv-x="350" unicode="I"/><glyph d="M85.5 10.5Q19 37-24 88l127 150q28-35 55-52t56-17q37 0 56.5 22t19.5 65v266H52v178h471V270q0-143-73.5-214.5T234-16q-82 0-148.5 26.5z" glyph-name="J" horiz-adv-x="574" unicode="J"/><glyph d="m342 232-53-59V0H57v700h232V446l230 254h257L496 392 790 0H517z" glyph-name="K" horiz-adv-x="765" unicode="K"/><glyph d="M57 700h236V183h316V0H57v700z" glyph-name="L" horiz-adv-x="617" unicode="L"/><glyph d="m682 0-2 319L528 63H424L272 308V0H57v700h194l228-373 222 373h194l2-700H682z" glyph-name="M" horiz-adv-x="954" unicode="M"/><glyph d="M747 700V0H553L287 318V0H57v700h194l266-318v318h230z" glyph-name="N" horiz-adv-x="804" unicode="N"/><glyph d="M221 31Q131 78 80 161.5T29 350t51 188.5T221 669t203 47 203-47 141-130.5T819 350t-51-188.5T627 31 424-16 221 31zm282.5 165.5q35.5 21.5 56.5 61t21 92.5-21 92.5-56.5 61T424 525t-79.5-21.5-56.5-61-21-92.5 21-92.5 56.5-61T424 175t79.5 21.5z" glyph-name="O" horiz-adv-x="848" unicode="O"/><glyph d="M563 668q72-32 111-92t39-140-39-140-111-92-169-32H293V0H57v700h337q97 0 169-32zM451 375.5q24 21.5 24 60.5t-24 60.5-72 21.5h-86V354h86q48 0 72 21.5z" glyph-name="P" horiz-adv-x="743" unicode="P"/><glyph d="M857-88q-37-44-89-66.5T653-177t-113 15.5-100 52T326-6q-88 18-155 68.5T66.5 187 29 350q0 105 51 188.5T221 669t203 47 203-47 141-130.5T819 350q0-115-61-203.5T593 16q15-16 30.5-22.5T658-13q52 0 97 45zM344.5 503.5Q309 482 288 442.5T267 350t21-92.5 56.5-61T424 175t79.5 21.5 56.5 61 21 92.5-21 92.5-56.5 61T424 525t-79.5-21.5z" glyph-name="Q" horiz-adv-x="848" unicode="Q"/><glyph d="M357 176h-64V0H57v700h337q97 0 169-32t111-92 39-140q0-75-34-131t-98-89L728 0H476zm94 320.5Q427 518 379 518h-86V354h86q48 0 72 21.5t24 60.5-24 60.5z" glyph-name="R" horiz-adv-x="745" unicode="R"/><glyph d="M148.5 3.5Q66 23 13 56l76 172q50-29 112-46.5T320 164q49 0 70 9.5t21 28.5q0 22-27.5 33T293 259q-81 17-135 36.5t-94 64T24 480q0 66 37 120t110.5 85T350 716q72 0 141.5-15.5T614 655l-71-171q-103 52-195 52-91 0-91-44 0-21 27-31.5t89-22.5q80-15 135-34.5t95.5-63.5T644 220q0-66-37-119.5t-110.5-85T318-16q-87 0-169.5 19.5z" glyph-name="S" horiz-adv-x="657" unicode="S"/><glyph d="M209 517H4v183h646V517H445V0H209v517z" glyph-name="T" horiz-adv-x="654" unicode="T"/><glyph d="M141 71q-90 87-90 244v385h236V322q0-77 27.5-112t79.5-35 79.5 35T501 322v378h232V315q0-157-90-244T392-16 141 71z" glyph-name="U" horiz-adv-x="784" unicode="U"/><glyph d="M805 700 509 0H277L-19 700h254l167-409 171 409h232z" glyph-name="V" horiz-adv-x="786" unicode="V"/><glyph d="M1196 700 972 0H719L606 374 487 0H234L10 700h243l122-398 129 398h217l122-403 129 403h224z" glyph-name="W" horiz-adv-x="1206" unicode="W"/><glyph d="M500 0 379 187 261 0H-8l253 353L1 700h265l119-176 116 176h254L512 362 770 0H500z" glyph-name="X" horiz-adv-x="762" unicode="X"/><glyph d="M473 254V0H237v257L-27 700h249l143-242 144 242h228z" glyph-name="Y" horiz-adv-x="710" unicode="Y"/><glyph d="M675 183V0H32v145l320 372H42v183h617V555L339 183h336z" glyph-name="Z" horiz-adv-x="687" unicode="Z"/><glyph d="M57 742h343V572H283V-24h117v-170H57v936z" glyph-name="bracketleft" horiz-adv-x="410" unicode="["/><glyph d="M280-100-50 842h200l330-942H280z" glyph-name="backslash" horiz-adv-x="440" unicode="\"/><glyph d="M10-194v170h117v596H10v170h343v-936H10z" glyph-name="bracketright" horiz-adv-x="410" unicode="]"/><glyph d="M414 139 310 390 206 139H36l185 422h178l185-422H414z" glyph-name="asciicircum" horiz-adv-x="620" unicode="^"/><glyph d="M0 0h500v-120H0V0z" glyph-name="underscore" horiz-adv-x="500" unicode="_"/><glyph d="M58 767h215l132-160H255z" glyph-name="grave" horiz-adv-x="600" unicode="`"/><glyph d="M515 492.5Q591 428 591 294V0H381v72q-39-82-155-82-65 0-110.5 22.5t-69 61T23 160q0 81 62 123t188 42h91q-11 64-103 64-37 0-75-11.5T121 346L49 495q47 29 113.5 45.5T295 557q144 0 220-64.5zM337 139q19 13 28 39v38h-56q-69 0-69-46 0-19 14.5-31.5T294 126q24 0 43 13z" glyph-name="a" horiz-adv-x="639" unicode="a"/><glyph d="M547.5 522.5q60.5-34.5 96-99T679 274t-35.5-150-96-99.5T415-10q-101 0-150 55V0H50v742h226V510q48 47 139 47 72 0 132.5-34.5zM425 194.5q25 28.5 25 79.5t-25 79-64 28-64-28-25-79 25-79.5 64-28.5 64 28.5z" glyph-name="b" horiz-adv-x="700" unicode="b"/><glyph d="M177.5 26Q104 62 62.5 127T21 274t41.5 146.5 115 100.5T344 557q100 0 171-43t98-119l-175-86q-32 72-95 72-40 0-66.5-28T250 274q0-52 26.5-80t66.5-28q63 0 95 72l175-86q-27-76-98-119T344-10q-93 0-166.5 36z" glyph-name="c" horiz-adv-x="615" unicode="c"/><glyph d="M655 742V0H440v45q-49-55-150-55-72 0-132.5 34.5t-96 99.5T26 274t35.5 149.5 96 99T290 557q91 0 139-47v232h226zM408 194.5q25 28.5 25 79.5t-25 79-64 28-64-28-25-79 25-79.5 64-28.5 64 28.5z" glyph-name="d" horiz-adv-x="705" unicode="d"/><glyph d="M629 221H249q12-31 40-47.5t70-16.5q36 0 60.5 9t53.5 31L591 78q-80-88-239-88-99 0-174 36.5T62 128 21 274q0 82 40.5 146.5t111 100.5T331 557q83 0 151.5-33t109-97T632 274q0-5-3-53zM275 384q-23-19-30-54h176q-7 34-30 53.5T333 403t-58-19z" glyph-name="e" horiz-adv-x="653" unicode="e"/><glyph d="M294 517h119V352H301V0H75v352H0v165h75v3q0 107 64 169.5T319 752q38 0 74-7t60-20l-54-157q-28 13-51 13-25 0-39.5-15.5T294 518v-1z" glyph-name="f" horiz-adv-x="426" unicode="f"/><glyph d="M661 547V109q0-156-86.5-234.5T328-204q-82 0-153 17.5T54-136l76 154q32-24 81-39t94-15q68 0 99 29t31 85v10q-51-58-151-58-70 0-130.5 32.5t-96.5 93T21 294t36 138 96.5 92.5T284 557q112 0 162-72v62h215zM410.5 230.5Q437 255 437 294t-26.5 63-66.5 24q-41 0-67.5-24T250 294t27-63.5 67-24.5 66.5 24.5z" glyph-name="g" horiz-adv-x="711" unicode="g"/><glyph d="M592.5 496Q654 435 654 312V0H428v273q0 94-67 94-38 0-61.5-26.5T276 257V0H50v742h226V503q63 54 154 54 101 0 162.5-61z" glyph-name="h" horiz-adv-x="702" unicode="h"/><glyph d="M50 547h226V0H50v547zm14.5 76.5Q27 656 27 706t37.5 82.5T163 821q62 0 99-31t37-80q0-52-37-85.5T163 591q-61 0-98.5 32.5z" glyph-name="i" horiz-adv-x="326" unicode="i"/><glyph d="m-94-177 54 157q24-13 51-13 21 0 34 15.5T58 30v517h226V28q0-107-63.5-169.5T45-204q-87 0-139 27zM72.5 623.5Q35 656 35 706t37.5 82.5T171 821q62 0 99-31t37-80q0-52-37-85.5T171 591q-61 0-98.5 32.5z" glyph-name="j" horiz-adv-x="334" unicode="j"/><glyph d="m312 168-36-39V0H50v742h226V388l157 159h267L474 310 718 0H445z" glyph-name="k" horiz-adv-x="713" unicode="k"/><glyph d="M50 742h226V0H50v742z" glyph-name="l" horiz-adv-x="326" unicode="l"/><glyph d="M932.5 496Q992 435 992 312V0H766v273q0 94-61 94-32 0-51.5-24T634 267V0H408v273q0 94-61 94-32 0-51.5-24T276 267V0H50v547h215v-51q61 61 155 61 55 0 99-20.5t72-62.5q33 40 80 61.5T774 557q99 0 158.5-61z" glyph-name="m" horiz-adv-x="1040" unicode="m"/><glyph d="M592.5 496Q654 435 654 312V0H428v273q0 94-67 94-38 0-61.5-26.5T276 257V0H50v547h215v-54q32 32 74 48t91 16q101 0 162.5-61z" glyph-name="n" horiz-adv-x="702" unicode="n"/><glyph d="M175.5 26.5Q103 63 62 127.5T21 274t41 146.5T175.5 521 339 557q92 0 164.5-36t113-100.5T657 274t-40.5-146.5-113-101T339-10q-91 0-163.5 36.5zm227.5 168q25 28.5 25 79.5t-25 79-64 28-64-28-25-79 25-79.5 64-28.5 64 28.5z" glyph-name="o" horiz-adv-x="678" unicode="o"/><glyph d="M547.5 522.5q60.5-34.5 96-99.5T679 273t-35.5-149.5-96-99T415-10q-91 0-139 47v-231H50v741h215v-45q49 55 150 55 72 0 132.5-34.5zM425 194q25 28 25 79t-25 79.5-64 28.5-64-28.5-25-79.5 25-79 64-28 64 28z" glyph-name="p" horiz-adv-x="700" unicode="p"/><glyph d="M650 547v-741H424V37q-48-47-139-47-72 0-132.5 34.5t-96 99T21 273t35.5 150 96 99.5T285 557q101 0 150-55v45h215zM403 194q25 28 25 79t-25 79.5-64 28.5-64-28.5-25-79.5 25-79 64-28 64 28z" glyph-name="q" horiz-adv-x="700" unicode="q"/><glyph d="M442 557V357q-27 4-50 4-116 0-116-118V0H50v547h215v-59q60 69 177 69z" glyph-name="r" horiz-adv-x="456" unicode="r"/><glyph d="M126 5Q58 20 16 44l62 149q38-23 90-36t101-13q39 0 54.5 6.5T339 170t-19.5 18-63.5 10q-67 8-114 20.5T59.5 267 24 370q0 53 32 95t95.5 67T304 557q62 0 121.5-11.5T527 512l-62-149q-72 40-158 40-74 0-74-26 0-13 20-18.5t63-10.5q67-8 113.5-21t82-49T547 175q0-51-32-93t-96-67-155-25q-70 0-138 15z" glyph-name="s" horiz-adv-x="565" unicode="s"/><glyph d="M453 19q-51-29-139-29-115 0-177 55.5T75 212v140H0v165h75v153h226V517h112V352H301V214q0-25 13-39t34-14q29 0 51 15z" glyph-name="t" horiz-adv-x="460" unicode="t"/><glyph d="M648 547V0H433v52q-30-31-70-46.5T278-10q-104 0-167 63.5T48 245v302h226V284q0-56 18-80t53-24q33 0 55 26.5t22 83.5v257h226z" glyph-name="u" horiz-adv-x="698" unicode="u"/><glyph d="M659 547 439 0H205L-15 547h232l110-293 118 293h214z" glyph-name="v" horiz-adv-x="644" unicode="v"/><glyph d="M983 547 793 0H573l-83 253L404 0H184L-6 547h214l94-289 98 289h192l95-292 98 292h198z" glyph-name="w" horiz-adv-x="977" unicode="w"/><glyph d="m395 0-75 117L236 0H-9l207 271L-3 547h255l78-116 82 116h237L448 281 654 0H395z" glyph-name="x" horiz-adv-x="645" unicode="x"/><glyph d="M659 547 434-11q-43-107-107-150t-157-43q-46 0-92.5 13.5T4-155L79 0q17-13 38.5-21t41.5-8q37 0 56 22L-15 547h232l113-293 115 293h214z" glyph-name="y" horiz-adv-x="644" unicode="y"/><glyph d="M552 165V0H30v130l226 252H38v165h503V417L315 165h237z" glyph-name="z" horiz-adv-x="570" unicode="z"/><glyph d="M328 318q-19-31-62-44 43-13 62-44t19-90V45q0-33 18-51t53-18h10v-170h-74q-115 0-174 55T121 19v126q0 22-11.5 33T78 189H45v170h33q20 0 31.5 11t11.5 33v126q0 103 59 158t174 55h74V572h-10q-35 0-53-18t-18-51v-95q0-59-19-90z" glyph-name="braceleft" horiz-adv-x="438" unicode="{"/><glyph d="M57 742h206v-936H57v936z" glyph-name="bar" horiz-adv-x="320" unicode="|"/><glyph d="M393 359V189h-33q-20 0-31.5-11T317 145V19q0-103-59-158T84-194H10v170h10q35 0 53 18t18 51v95q0 59 19 90t62 44q-43 13-62 44t-19 90v95q0 33-18 51t-53 18H10v170h74q115 0 174-55t59-158V403q0-22 11.5-33t31.5-11h33z" glyph-name="braceright" horiz-adv-x="438" unicode="}"/><glyph d="M346.5 247.5Q319 260 288 282q-22 15-34 21.5t-25 6.5q-22 0-36-16.5T178 247H40q1 103 48.5 162T211 468q35 0 62.5-12.5T332 421q22-15 34-21.5t25-6.5q22 0 36 16.5t15 46.5h138q-1-103-48.5-162T409 235q-35 0-62.5 12.5z" glyph-name="asciitilde" horiz-adv-x="620" unicode="~"/><glyph glyph-name="uni00A0" horiz-adv-x="300"/><glyph d="M252 522q37-35 37-85 0-51-37-84.5T157 319t-95 33.5T25 437q0 50 37 85t95 35 95-35zm40-676H22l45 433h180z" glyph-name="exclamdown" horiz-adv-x="314" unicode="¡"/><glyph d="m438 238 175-86q-22-64-77-105T404-6v-114H263V-2Q153 19 87 93.5T21 274q0 105 66 179.5T263 549v118h141V553q77-12 132-53t77-105l-175-86q-32 72-95 72-40 0-66.5-28T250 274q0-52 26.5-80t66.5-28q63 0 95 72z" glyph-name="cent" horiz-adv-x="615" unicode="¢"/><glyph d="M356 178h304V0H30v178h90v106H30v132h90q5 144 98 222t259 78q61 0 115-11.5t93-31.5l-68-178q-28 15-59.5 22.5T497 525q-134 0-141-109h210V284H356V178z" glyph-name="sterling" horiz-adv-x="694" unicode="£"/><glyph d="m578 214 103-103L556-14 451 91q-49-22-102-22-52 0-102 21L143-14 18 111l102 102q-25 52-25 110 0 53 22 102l-99 99 125 125 97-97q52 25 109 25 58 0 110-25l97 97 125-125-99-99q21-50 21-102 0-57-25-109zm-172.5 53q23.5 23 23.5 56t-23.5 56.5T349 403t-56-23.5-23-56.5 23-56 56-23 56.5 23z" glyph-name="currency" horiz-adv-x="700" unicode="¤"/><glyph d="M544 310h119V198H503v-26h160V60H503V0H267v60H107v112h160v26H107v112h120L-27 700h252l170-257 171 257h231z" glyph-name="yen" horiz-adv-x="770" unicode="¥"/><glyph d="M57 742h206V392H57v350zm0-586h206v-350H57v350z" glyph-name="brokenbar" horiz-adv-x="320" unicode="¦"/><glyph d="M471 189q37-39 37-104 0-56-28.5-100t-85-69.5T257-110q-65 0-132 15T16-56L78 93q38-22 87.5-35.5T255 44q28 0 41.5 9T310 77q0 18-22 27t-70 17q-60 11-100 24t-69.5 46T19 283q0 78 55 129-36 39-36 103 0 87 71 141t209 54q51 0 115.5-11.5T536 665l-62-149q-72 40-166 40-72 0-72-33 0-15 18.5-21.5T318 486q60-11 102.5-26.5t74-51.5T526 308q0-70-55-119zm-236 86q21-8 71-18 25 17 25 42 0 19-21 27t-71 18q-25-17-25-42 0-19 21-27z" glyph-name="section" horiz-adv-x="549" unicode="§"/><glyph d="M124.5 623.5Q99 648 99 687t25.5 64 64.5 25 64.5-25 25.5-64-25.5-63.5T189 599t-64.5 24.5zm222 0Q321 648 321 687t25.5 64 64.5 25 64.5-25 25.5-64-25.5-63.5T411 599t-64.5 24.5z" glyph-name="dieresis" horiz-adv-x="600" unicode="¨"/><glyph d="M202.5 44Q122 91 75.5 172T29 350t46.5 178T203 656t180 47 179.5-46T689 530.5 735 352t-47-179.5T560 44 381-3 202.5 44zm312 76q59.5 35 93 96T641 352t-33 135-91.5 94T383 615t-134-35-92.5-95.5T123 350t33.5-134.5 92-95.5T381 85t133.5 35zm-229 57.5Q236 203 208.5 248T181 350t27.5 102 77 70.5T397 548q66 0 114-30t66-83l-128-65q-18 40-53 40-21 0-36-16t-15-44 15-44 36-16q35 0 53 40l128-65q-18-53-66-83t-114-30q-62 0-111.5 25.5z" glyph-name="copyright" horiz-adv-x="764" unicode="©"/><glyph d="M386 593V420H244v42q-24-48-98-48-62 0-95.5 29T17 516q0 98 161 98h53q-8 33-65 33-21 0-44.5-6.5T81 622l-48 93q31 18 74 27.5t85 9.5q194 0 194-159zm-169-87q11 7 16 21v19h-31q-41 0-41-24 0-10 8.5-16.5T192 499t25 7z" glyph-name="ordfeminine" horiz-adv-x="422" unicode="ª"/><glyph d="m25 274 138 200h200L230 274 363 74H163zm265 0 138 200h200L495 274 628 74H428z" glyph-name="guillemotleft" horiz-adv-x="643" unicode="«"/><glyph d="M565 95H385v170H55v170h510V95z" glyph-name="logicalnot" horiz-adv-x="620" unicode="¬"/><glyph d="M45 374h300V204H45v170z" glyph-name="uni00AD" horiz-adv-x="390" unicode="­"/><glyph d="M562.5 657Q643 611 689 530.5T735 352t-47-179.5T560 44 381-3 202.5 44t-127 128T29 350t46.5 178T203 656t180 47 179.5-46zM641 352q0 75-33 135t-91.5 94T383 615t-134-35-92.5-95.5T123 350t33.5-134.5 92-95.5T381 85q55 0 103 20t83 57H445l-62 96h-23v-96H216v376h179q83 0 130-38t47-102q0-79-60-114l69-107q60 74 60 175zm-255 5q20 0 31 11t11 30-11 30-31 11h-26v-82h26z" glyph-name="registered" horiz-adv-x="764" unicode="®"/><glyph d="M90 746h420V628H90v118z" glyph-name="macron" horiz-adv-x="600" unicode="¯"/><glyph d="M114 373q-43 24-68.5 65.5T20 530t25.5 91.5T114 687t94 24 94-24 68.5-65.5T396 530t-25.5-91.5T302 373t-94-24-94 24zm148.5 102q21.5 22 21.5 55t-21.5 55-54.5 22-54.5-22-21.5-55 21.5-55 54.5-22 54.5 22z" glyph-name="degree" horiz-adv-x="416" unicode="°"/><glyph d="M565 548V387H400V235H220v152H55v161h165v152h180V548h165zM55 170h510V0H55v170z" glyph-name="plusminus" horiz-adv-x="620" unicode="±"/><glyph d="M401 441V327H35v91l159 136q36 30 36 54 0 13-10 20.5t-30 7.5q-46 0-67-38L7 653q23 45 73 72t124 27q83 0 133.5-36t50.5-96q0-32-17-61.5T308 488l-55-47h148z" glyph-name="uni00B2" horiz-adv-x="430" unicode="²"/><glyph d="M387 536.5q28-31.5 28-75.5 0-38-22.5-70.5t-70.5-53T203 317q-54 0-107 11.5T9 359l52 109q31-17 68-26t70-9q58 0 58 28 0 24-48 24h-72v91l63 55H32v111h358v-91l-83-71q52-12 80-43.5z" glyph-name="uni00B3" horiz-adv-x="430" unicode="³"/><glyph d="M327 767h215L345 607H195z" glyph-name="acute" horiz-adv-x="600" unicode="´"/><glyph d="M650 547V0H455v51q-21-31-51-46t-64-15-64 14v-198H50v741h226V284q0-56 18-80t53-24q33 0 55 26.5t22 83.5v257h226z" glyph-name="uni00B5" horiz-adv-x="700" unicode="µ"/><glyph d="M229 333q-62 2-112.5 27.5t-79.5 71T8 537q0 62 32 108.5t91 71.5 137 25h405v-842H491v687h-80v-687H229v433z" glyph-name="paragraph" horiz-adv-x="730" unicode="¶"/><glyph d="M76.5 195Q40 231 40 290t36.5 94 95.5 35 95.5-35 36.5-94-36.5-95-95.5-36-95.5 36z" glyph-name="periodcentered" horiz-adv-x="344" unicode="·"/><glyph d="M205-234q-28 6-44 15l28 83q30-12 60-12 48 0 48 24 0 20-41 20h-41l27 114h116l-14-62q44-6 64.5-28.5T429-132q0-50-46.5-79T259-240q-26 0-54 6z" glyph-name="cedilla" horiz-adv-x="600" unicode="¸"/><glyph d="M386 438V327H64v111h88v193H74v111h238V438h74z" glyph-name="uni00B9" horiz-adv-x="430" unicode="¹"/><glyph d="M114.5 435.5Q68 457 42 495.5T16 583t26 87.5 72.5 60T219 752q59 0 105-21.5t72-60 26-87.5-26-87.5-72-60T219 414q-58 0-104.5 21.5zm142 104Q271 555 271 583q0 29-14.5 44T219 642t-37.5-15-14.5-44q0-28 14.5-43.5T219 524t37.5 15.5z" glyph-name="ordmasculine" horiz-adv-x="438" unicode="º"/><glyph d="m15 74 133 200L15 474h200l138-200L215 74H15zm265 0 133 200-133 200h200l138-200L480 74H280z" glyph-name="guillemotright" horiz-adv-x="643" unicode="»"/><glyph d="M386 396V285H64v111h88v193H74v111h238V396h74zm297 304h169L374 0H205zm364-632h-50V0H845v68H626v94l175 253h167L806 182h57v55h134v-55h50V68z" glyph-name="onequarter" horiz-adv-x="1057" unicode="¼"/><glyph d="M386 396V285H64v111h88v193H74v111h238V396h74zm297 304h169L374 0H205zm345-586V0H662v91l159 136q36 30 36 54 0 13-10 20.5t-30 7.5q-46 0-67-38l-116 55q23 45 73 72t124 27q83 0 133.5-36t50.5-96q0-32-17-61.5T935 161l-55-47h148z" glyph-name="onehalf" horiz-adv-x="1057" unicode="½"/><glyph d="M387 494.5q28-31.5 28-75.5 0-38-22.5-70.5t-70.5-53T203 275q-54 0-107 11.5T9 317l52 109q31-17 68-26t70-9q58 0 58 28 0 24-48 24h-72v91l63 55H32v111h358v-91l-83-71q52-12 80-43.5zM683 700h169L374 0H205zm364-632h-50V0H845v68H626v94l175 253h167L806 182h57v55h134v-55h50V68z" glyph-name="threequarters" horiz-adv-x="1057" unicode="¾"/><glyph d="M201 352.5Q164 386 164 437q0 50 37 85t95 35 95-35 37-85q0-51-37-84.5T296 319t-95 33.5zM109-119Q33-69 33 22q0 42 14.5 73.5t34.5 53 51 47.5q32 28 46 45t14 38h206q0-47-21-78.5T318 132q-25-24-36.5-39T270 61q0-22 19-34.5T337 14q32 0 60 18.5T441 82L619-7q-40-76-118.5-119T307-169q-122 0-198 50z" glyph-name="questiondown" horiz-adv-x="606" unicode="¿"/><glyph d="M534 122H268L221 0H-19l306 700h232L825 0H581zm-65 170-68 176-68-176h136zM161 917h215l132-160H358z" glyph-name="Agrave" horiz-adv-x="806" unicode="À"/><glyph d="M534 122H268L221 0H-19l306 700h232L825 0H581zm-65 170-68 176-68-176h136zm-39 625h215L448 757H298z" glyph-name="Aacute" horiz-adv-x="806" unicode="Á"/><glyph d="M534 122H268L221 0H-19l306 700h232L825 0H581zm-65 170-68 176-68-176h136zm18 465-84 77-84-77H179l128 160h192l128-160H487z" glyph-name="Acircumflex" horiz-adv-x="806" unicode="Â"/><glyph d="M534 122H268L221 0H-19l306 700h232L825 0H581zm-65 170-68 176-68-176h136zm-37 465q-23 10-48 27-17 11-27.5 16.5T336 806q-19 0-31-13t-14-36H184q2 80 38.5 126.5T322 930q29 0 52-10t48-27q17-12 27.5-17t20.5-5q19 0 31 12.5t14 33.5h107q-2-77-38.5-123.5T484 747q-29 0-52 10z" glyph-name="Atilde" horiz-adv-x="806" unicode="Ã"/><glyph d="M534 122H268L221 0H-19l306 700h232L825 0H581zm-65 170-68 176-68-176h136zM227.5 773.5Q202 798 202 837t25.5 64 64.5 25 64.5-25 25.5-64-25.5-63.5T292 749t-64.5 24.5zm222 0Q424 798 424 837t25.5 64 64.5 25 64.5-25 25.5-64-25.5-63.5T514 749t-64.5 24.5z" glyph-name="Adieresis" horiz-adv-x="806" unicode="Ä"/><glyph d="M534 122H268L221 0H-19l306 700h232L825 0H581zm-65 170-68 176-68-176h136zM332 761q-32 18-50.5 48.5T263 877t18.5 67.5T332 993t71 18 71-18 50.5-48.5T543 877t-18.5-67.5T474 761t-71-18-71 18zm109.5 77q15.5 15 15.5 39t-15.5 39-38.5 15-38.5-15-15.5-39 15.5-39 38.5-15 38.5 15z" glyph-name="Aring" horiz-adv-x="806" unicode="Å"/><glyph d="M1085 178V0H503v122H282L221 0H-19l369 700h722V522H735v-82h296V270H735v-92h350zM503 292v230h-23L366 292h137z" glyph-name="AE" horiz-adv-x="1119" unicode="Æ"/><glyph d="M219 30.5Q130 77 79.5 160.5T29 350t50.5 189.5 139.5 130T419 716q102 0 182-36t132-104L584 443q-65 82-153 82-74 0-119-47.5T267 350t45-127.5T431 175q88 0 153 82l149-133Q681 56 601 20T419-16q-111 0-200 46.5zM297-234q-28 6-44 15l28 83q30-12 60-12 48 0 48 24 0 20-41 20h-41l27 114h116l-14-62q44-6 64.5-28.5T521-132q0-50-46.5-79T351-240q-26 0-54 6z" glyph-name="Ccedilla" horiz-adv-x="744" unicode="Ç"/><glyph d="M639 178V0H57v700h569V522H289v-82h296V270H289v-92h350zM100 917h215l132-160H297z" glyph-name="Egrave" horiz-adv-x="673" unicode="È"/><glyph d="M639 178V0H57v700h569V522H289v-82h296V270H289v-92h350zM369 917h215L387 757H237z" glyph-name="Eacute" horiz-adv-x="673" unicode="É"/><glyph d="M639 178V0H57v700h569V522H289v-82h296V270H289v-92h350zM426 757l-84 77-84-77H118l128 160h192l128-160H426z" glyph-name="Ecircumflex" horiz-adv-x="673" unicode="Ê"/><glyph d="M639 178V0H57v700h569V522H289v-82h296V270H289v-92h350zM166.5 773.5Q141 798 141 837t25.5 64 64.5 25 64.5-25 25.5-64-25.5-63.5T231 749t-64.5 24.5zm222 0Q363 798 363 837t25.5 64 64.5 25 64.5-25 25.5-64-25.5-63.5T453 749t-64.5 24.5z" glyph-name="Edieresis" horiz-adv-x="673" unicode="Ë"/><glyph d="M57 700h236V0H57v700zM-67 917h215l132-160H130z" glyph-name="Igrave" horiz-adv-x="350" unicode="Ì"/><glyph d="M57 700h236V0H57v700zm145 217h215L220 757H70z" glyph-name="Iacute" horiz-adv-x="350" unicode="Í"/><glyph d="M57 700h236V0H57v700zm202 57-84 77-84-77H-49L79 917h192l128-160H259z" glyph-name="Icircumflex" horiz-adv-x="350" unicode="Î"/><glyph d="M57 700h236V0H57v700zM-.5 773.5Q-26 798-26 837t25.5 64T64 926t64.5-25 25.5-64-25.5-63.5T64 749-.5 773.5zm222 0Q196 798 196 837t25.5 64 64.5 25 64.5-25 25.5-64-25.5-63.5T286 749t-64.5 24.5z" glyph-name="Idieresis" horiz-adv-x="350" unicode="Ï"/><glyph d="M77 700h345q117 0 206.5-42.5t139-121.5T817 350t-49.5-186-139-121.5T422 0H77v700zm335-516q76 0 121.5 43.5T579 350t-45.5 122.5T412 516h-99V184h99zM-9 423h470V287H-9v136z" glyph-name="Eth" horiz-adv-x="846" unicode="Ð"/><glyph d="M747 700V0H553L287 318V0H57v700h194l266-318v318h230zm-316 57q-23 10-48 27-17 11-27.5 16.5T335 806q-19 0-31-13t-14-36H183q2 80 38.5 126.5T321 930q29 0 52-10t48-27q17-12 27.5-17t20.5-5q19 0 31 12.5t14 33.5h107q-2-77-38.5-123.5T483 747q-29 0-52 10z" glyph-name="Ntilde" horiz-adv-x="804" unicode="Ñ"/><glyph d="M221 31Q131 78 80 161.5T29 350t51 188.5T221 669t203 47 203-47 141-130.5T819 350t-51-188.5T627 31 424-16 221 31zm282.5 165.5q35.5 21.5 56.5 61t21 92.5-21 92.5-56.5 61T424 525t-79.5-21.5-56.5-61-21-92.5 21-92.5 56.5-61T424 175t79.5 21.5zM182 917h215l132-160H379z" glyph-name="Ograve" horiz-adv-x="848" unicode="Ò"/><glyph d="M221 31Q131 78 80 161.5T29 350t51 188.5T221 669t203 47 203-47 141-130.5T819 350t-51-188.5T627 31 424-16 221 31zm282.5 165.5q35.5 21.5 56.5 61t21 92.5-21 92.5-56.5 61T424 525t-79.5-21.5-56.5-61-21-92.5 21-92.5 56.5-61T424 175t79.5 21.5zM451 917h215L469 757H319z" glyph-name="Oacute" horiz-adv-x="848" unicode="Ó"/><glyph d="M221 31Q131 78 80 161.5T29 350t51 188.5T221 669t203 47 203-47 141-130.5T819 350t-51-188.5T627 31 424-16 221 31zm282.5 165.5q35.5 21.5 56.5 61t21 92.5-21 92.5-56.5 61T424 525t-79.5-21.5-56.5-61-21-92.5 21-92.5 56.5-61T424 175t79.5 21.5zM508 757l-84 77-84-77H200l128 160h192l128-160H508z" glyph-name="Ocircumflex" horiz-adv-x="848" unicode="Ô"/><glyph d="M221 31Q131 78 80 161.5T29 350t51 188.5T221 669t203 47 203-47 141-130.5T819 350t-51-188.5T627 31 424-16 221 31zm282.5 165.5q35.5 21.5 56.5 61t21 92.5-21 92.5-56.5 61T424 525t-79.5-21.5-56.5-61-21-92.5 21-92.5 56.5-61T424 175t79.5 21.5zM453 757q-23 10-48 27-17 11-27.5 16.5T357 806q-19 0-31-13t-14-36H205q2 80 38.5 126.5T343 930q29 0 52-10t48-27q17-12 27.5-17t20.5-5q19 0 31 12.5t14 33.5h107q-2-77-38.5-123.5T505 747q-29 0-52 10z" glyph-name="Otilde" horiz-adv-x="848" unicode="Õ"/><glyph d="M221 31Q131 78 80 161.5T29 350t51 188.5T221 669t203 47 203-47 141-130.5T819 350t-51-188.5T627 31 424-16 221 31zm282.5 165.5q35.5 21.5 56.5 61t21 92.5-21 92.5-56.5 61T424 525t-79.5-21.5-56.5-61-21-92.5 21-92.5 56.5-61T424 175t79.5 21.5zm-255 577Q223 798 223 837t25.5 64 64.5 25 64.5-25 25.5-64-25.5-63.5T313 749t-64.5 24.5zm222 0Q445 798 445 837t25.5 64 64.5 25 64.5-25 25.5-64-25.5-63.5T535 749t-64.5 24.5z" glyph-name="Odieresis" horiz-adv-x="848" unicode="Ö"/><glyph d="m430 350 120-120-120-120-120 120-120-120L70 230l120 120L70 470l120 120 120-120 120 120 120-120z" glyph-name="multiply" horiz-adv-x="620" unicode="×"/><glyph d="M221 31Q131 78 80 161.5T29 350t51 188.5T221 669t203 47 203-47 141-130.5T819 350t-51-188.5T627 31 424-16 221 31zm282.5 165.5q35.5 21.5 56.5 61t21 92.5-21 92.5-56.5 61T424 525t-79.5-21.5-56.5-61-21-92.5 21-92.5 56.5-61T424 175t79.5 21.5zM657 770h130L191-70H61z" glyph-name="Oslash" horiz-adv-x="848" unicode="Ø"/><glyph d="M141 71q-90 87-90 244v385h236V322q0-77 27.5-112t79.5-35 79.5 35T501 322v378h232V315q0-157-90-244T392-16 141 71zm11 846h215l132-160H349z" glyph-name="Ugrave" horiz-adv-x="784" unicode="Ù"/><glyph d="M141 71q-90 87-90 244v385h236V322q0-77 27.5-112t79.5-35 79.5 35T501 322v378h232V315q0-157-90-244T392-16 141 71zm280 846h215L439 757H289z" glyph-name="Uacute" horiz-adv-x="784" unicode="Ú"/><glyph d="M141 71q-90 87-90 244v385h236V322q0-77 27.5-112t79.5-35 79.5 35T501 322v378h232V315q0-157-90-244T392-16 141 71zm337 686-84 77-84-77H170l128 160h192l128-160H478z" glyph-name="Ucircumflex" horiz-adv-x="784" unicode="Û"/><glyph d="M141 71q-90 87-90 244v385h236V322q0-77 27.5-112t79.5-35 79.5 35T501 322v378h232V315q0-157-90-244T392-16 141 71zm77.5 702.5Q193 798 193 837t25.5 64 64.5 25 64.5-25 25.5-64-25.5-63.5T283 749t-64.5 24.5zm222 0Q415 798 415 837t25.5 64 64.5 25 64.5-25 25.5-64-25.5-63.5T505 749t-64.5 24.5z" glyph-name="Udieresis" horiz-adv-x="784" unicode="Ü"/><glyph d="M473 254V0H237v257L-27 700h249l143-242 144 242h228zm-91 663h215L400 757H250z" glyph-name="Yacute" horiz-adv-x="710" unicode="Ý"/><glyph d="M563 601q72-32 111-92t39-140-39-140-111-92-169-32H293V0H57v701h236v-68h101q97 0 169-32zM451 308.5q24 21.5 24 60.5t-24 60.5-72 21.5h-86V287h86q48 0 72 21.5z" glyph-name="Thorn" horiz-adv-x="743" unicode="Þ"/><glyph d="M660.5 325.5Q693 279 693 213q0-105-71-164T430-10q-33 0-67.5 4.5T308 6l22 172q31-12 66-12 30 0 49 14t19 39q0 52-76 52h-52v170q35 2 56 20.5t21 49.5q0 30-18 48.5T348 578q-33 0-52.5-19.5T276 503V0H50v472q0 89 40 152t107.5 95.5T347 752q88 0 152-29t97.5-78.5T630 533q0-80-64-137 62-24 94.5-70.5z" glyph-name="germandbls" horiz-adv-x="714" unicode="ß"/><glyph d="M515 492.5Q591 428 591 294V0H381v72q-39-82-155-82-65 0-110.5 22.5t-69 61T23 160q0 81 62 123t188 42h91q-11 64-103 64-37 0-75-11.5T121 346L49 495q47 29 113.5 45.5T295 557q144 0 220-64.5zM337 139q19 13 28 39v38h-56q-69 0-69-46 0-19 14.5-31.5T294 126q24 0 43 13zM79 767h215l132-160H276z" glyph-name="agrave" horiz-adv-x="639" unicode="à"/><glyph d="M515 492.5Q591 428 591 294V0H381v72q-39-82-155-82-65 0-110.5 22.5t-69 61T23 160q0 81 62 123t188 42h91q-11 64-103 64-37 0-75-11.5T121 346L49 495q47 29 113.5 45.5T295 557q144 0 220-64.5zM337 139q19 13 28 39v38h-56q-69 0-69-46 0-19 14.5-31.5T294 126q24 0 43 13zm11 628h215L366 607H216z" glyph-name="aacute" horiz-adv-x="639" unicode="á"/><glyph d="M515 492.5Q591 428 591 294V0H381v72q-39-82-155-82-65 0-110.5 22.5t-69 61T23 160q0 81 62 123t188 42h91q-11 64-103 64-37 0-75-11.5T121 346L49 495q47 29 113.5 45.5T295 557q144 0 220-64.5zM337 139q19 13 28 39v38h-56q-69 0-69-46 0-19 14.5-31.5T294 126q24 0 43 13zm68 468-84 77-84-77H97l128 160h192l128-160H405z" glyph-name="acircumflex" horiz-adv-x="639" unicode="â"/><glyph d="M515 492.5Q591 428 591 294V0H381v72q-39-82-155-82-65 0-110.5 22.5t-69 61T23 160q0 81 62 123t188 42h91q-11 64-103 64-37 0-75-11.5T121 346L49 495q47 29 113.5 45.5T295 557q144 0 220-64.5zM337 139q19 13 28 39v38h-56q-69 0-69-46 0-19 14.5-31.5T294 126q24 0 43 13zm13 468q-23 10-48 27-17 11-27.5 16.5T254 656q-19 0-31-13t-14-36H102q2 80 38.5 126.5T240 780q29 0 52-10t48-27q17-12 27.5-17t20.5-5q19 0 31 12.5t14 33.5h107q-2-77-38.5-123.5T402 597q-29 0-52 10z" glyph-name="atilde" horiz-adv-x="639" unicode="ã"/><glyph d="M515 492.5Q591 428 591 294V0H381v72q-39-82-155-82-65 0-110.5 22.5t-69 61T23 160q0 81 62 123t188 42h91q-11 64-103 64-37 0-75-11.5T121 346L49 495q47 29 113.5 45.5T295 557q144 0 220-64.5zM337 139q19 13 28 39v38h-56q-69 0-69-46 0-19 14.5-31.5T294 126q24 0 43 13zM145.5 623.5Q120 648 120 687t25.5 64 64.5 25 64.5-25 25.5-64-25.5-63.5T210 599t-64.5 24.5zm222 0Q342 648 342 687t25.5 64 64.5 25 64.5-25 25.5-64-25.5-63.5T432 599t-64.5 24.5z" glyph-name="adieresis" horiz-adv-x="639" unicode="ä"/><glyph d="M515 492.5Q591 428 591 294V0H381v72q-39-82-155-82-65 0-110.5 22.5t-69 61T23 160q0 81 62 123t188 42h91q-11 64-103 64-37 0-75-11.5T121 346L49 495q47 29 113.5 45.5T295 557q144 0 220-64.5zM337 139q19 13 28 39v38h-56q-69 0-69-46 0-19 14.5-31.5T294 126q24 0 43 13zm-87 469q-32 18-50.5 48.5T181 724t18.5 67.5T250 840t71 18 71-18 50.5-48.5T461 724t-18.5-67.5T392 608t-71-18-71 18zm109.5 77q15.5 15 15.5 39t-15.5 39-38.5 15-38.5-15-15.5-39 15.5-39 38.5-15 38.5 15z" glyph-name="aring" horiz-adv-x="639" unicode="å"/><glyph d="M978 219H599q11-30 38.5-46t69.5-16q32 0 59 9.5t56 30.5L940 78q-41-43-101-65.5T704-10q-69 0-129 20T471 72q-36-45-85.5-63.5T270-10Q155-10 89 38.5T23 168q0 76 62.5 118T273 328h90q-13 61-101 61-39 0-76.5-11.5T121 346L49 495q47 29 112.5 45.5T294 557q128 0 198-60 40 29 89.5 44.5T685 557q79 0 147-33t109-96.5T982 276q0-25-4-57zM623.5 383Q600 363 593 328h173q-7 35-29.5 55T681 403q-34 0-57.5-20zM347 145.5q18 19.5 18 54.5v19h-56q-69 0-69-46 0-22 14.5-34.5T296 126q33 0 51 19.5z" glyph-name="ae" horiz-adv-x="1003" unicode="æ"/><glyph d="M177.5 26Q104 62 62.5 127T21 274t41.5 146.5 115 100.5T344 557q100 0 171-43t98-119l-175-86q-32 72-95 72-40 0-66.5-28T250 274q0-52 26.5-80t66.5-28q63 0 95 72l175-86q-27-76-98-119T344-10q-93 0-166.5 36zM221-234q-28 6-44 15l28 83q30-12 60-12 48 0 48 24 0 20-41 20h-41l27 114h116l-14-62q44-6 64.5-28.5T445-132q0-50-46.5-79T275-240q-26 0-54 6z" glyph-name="ccedilla" horiz-adv-x="615" unicode="ç"/><glyph d="M629 221H249q12-31 40-47.5t70-16.5q36 0 60.5 9t53.5 31L591 78q-80-88-239-88-99 0-174 36.5T62 128 21 274q0 82 40.5 146.5t111 100.5T331 557q83 0 151.5-33t109-97T632 274q0-5-3-53zM275 384q-23-19-30-54h176q-7 34-30 53.5T333 403t-58-19zM85 767h215l132-160H282z" glyph-name="egrave" horiz-adv-x="653" unicode="è"/><glyph d="M629 221H249q12-31 40-47.5t70-16.5q36 0 60.5 9t53.5 31L591 78q-80-88-239-88-99 0-174 36.5T62 128 21 274q0 82 40.5 146.5t111 100.5T331 557q83 0 151.5-33t109-97T632 274q0-5-3-53zM275 384q-23-19-30-54h176q-7 34-30 53.5T333 403t-58-19zm79 383h215L372 607H222z" glyph-name="eacute" horiz-adv-x="653" unicode="é"/><glyph d="M629 221H249q12-31 40-47.5t70-16.5q36 0 60.5 9t53.5 31L591 78q-80-88-239-88-99 0-174 36.5T62 128 21 274q0 82 40.5 146.5t111 100.5T331 557q83 0 151.5-33t109-97T632 274q0-5-3-53zM275 384q-23-19-30-54h176q-7 34-30 53.5T333 403t-58-19zm136 223-84 77-84-77H103l128 160h192l128-160H411z" glyph-name="ecircumflex" horiz-adv-x="653" unicode="ê"/><glyph d="M629 221H249q12-31 40-47.5t70-16.5q36 0 60.5 9t53.5 31L591 78q-80-88-239-88-99 0-174 36.5T62 128 21 274q0 82 40.5 146.5t111 100.5T331 557q83 0 151.5-33t109-97T632 274q0-5-3-53zM275 384q-23-19-30-54h176q-7 34-30 53.5T333 403t-58-19zM151.5 623.5Q126 648 126 687t25.5 64 64.5 25 64.5-25 25.5-64-25.5-63.5T216 599t-64.5 24.5zm222 0Q348 648 348 687t25.5 64 64.5 25 64.5-25 25.5-64-25.5-63.5T438 599t-64.5 24.5z" glyph-name="edieresis" horiz-adv-x="653" unicode="ë"/><glyph d="M50 547h226V0H50v547zM-79 767h215l132-160H118z" glyph-name="igrave" horiz-adv-x="326" unicode="ì"/><glyph d="M50 547h226V0H50v547zm140 220h215L208 607H58z" glyph-name="iacute" horiz-adv-x="326" unicode="í"/><glyph d="M50 547h226V0H50v547zm172 60-59 67-59-67H-36L69 767h188l105-160H222z" glyph-name="icircumflex" horiz-adv-x="326" unicode="î"/><glyph d="M50 547h226V0H50v547zm-39.5 76.5Q-13 648-13 687t23.5 64T70 776q35 0 58.5-25t23.5-64-23.5-63.5T70 599q-36 0-59.5 24.5zm187 0Q174 648 174 687t23.5 64 59.5 25q35 0 58.5-25t23.5-64-23.5-63.5T257 599q-36 0-59.5 24.5z" glyph-name="idieresis" horiz-adv-x="326" unicode="ï"/><glyph d="M655 338q0-110-43-190T491.5 26 310-16q-81 0-147 30.5T59 101 21 229q0 66 33 117t89.5 79T268 453q92 0 147-43-3 79-39 124l-232-84-35 91 146 53q-24 2-37 2-66 0-121-18L76 741q80 17 156 17 165 0 271-74l93 34 35-91-51-19q75-103 75-270zM383 166.5q22 19.5 22 51.5t-22 52-55 20-55-20-22-52 22-51.5 55-19.5 55 19.5z" glyph-name="eth" horiz-adv-x="676" unicode="ð"/><glyph d="M592.5 496Q654 435 654 312V0H428v273q0 94-67 94-38 0-61.5-26.5T276 257V0H50v547h215v-54q32 32 74 48t91 16q101 0 162.5-61zM384 607q-23 10-48 27-17 11-27.5 16.5T288 656q-19 0-31-13t-14-36H136q2 80 38.5 126.5T274 780q29 0 52-10t48-27q17-12 27.5-17t20.5-5q19 0 31 12.5t14 33.5h107q-2-77-38.5-123.5T436 597q-29 0-52 10z" glyph-name="ntilde" horiz-adv-x="702" unicode="ñ"/><glyph d="M175.5 26.5Q103 63 62 127.5T21 274t41 146.5T175.5 521 339 557q92 0 164.5-36t113-100.5T657 274t-40.5-146.5-113-101T339-10q-91 0-163.5 36.5zm227.5 168q25 28.5 25 79.5t-25 79-64 28-64-28-25-79 25-79.5 64-28.5 64 28.5zM94 767h215l132-160H291z" glyph-name="ograve" horiz-adv-x="678" unicode="ò"/><glyph d="M175.5 26.5Q103 63 62 127.5T21 274t41 146.5T175.5 521 339 557q92 0 164.5-36t113-100.5T657 274t-40.5-146.5-113-101T339-10q-91 0-163.5 36.5zm227.5 168q25 28.5 25 79.5t-25 79-64 28-64-28-25-79 25-79.5 64-28.5 64 28.5zM363 767h215L381 607H231z" glyph-name="oacute" horiz-adv-x="678" unicode="ó"/><glyph d="M175.5 26.5Q103 63 62 127.5T21 274t41 146.5T175.5 521 339 557q92 0 164.5-36t113-100.5T657 274t-40.5-146.5-113-101T339-10q-91 0-163.5 36.5zm227.5 168q25 28.5 25 79.5t-25 79-64 28-64-28-25-79 25-79.5 64-28.5 64 28.5zM420 607l-84 77-84-77H112l128 160h192l128-160H420z" glyph-name="ocircumflex" horiz-adv-x="678" unicode="ô"/><glyph d="M175.5 26.5Q103 63 62 127.5T21 274t41 146.5T175.5 521 339 557q92 0 164.5-36t113-100.5T657 274t-40.5-146.5-113-101T339-10q-91 0-163.5 36.5zm227.5 168q25 28.5 25 79.5t-25 79-64 28-64-28-25-79 25-79.5 64-28.5 64 28.5zM365 607q-23 10-48 27-17 11-27.5 16.5T269 656q-19 0-31-13t-14-36H117q2 80 38.5 126.5T255 780q29 0 52-10t48-27q17-12 27.5-17t20.5-5q19 0 31 12.5t14 33.5h107q-2-77-38.5-123.5T417 597q-29 0-52 10z" glyph-name="otilde" horiz-adv-x="678" unicode="õ"/><glyph d="M175.5 26.5Q103 63 62 127.5T21 274t41 146.5T175.5 521 339 557q92 0 164.5-36t113-100.5T657 274t-40.5-146.5-113-101T339-10q-91 0-163.5 36.5zm227.5 168q25 28.5 25 79.5t-25 79-64 28-64-28-25-79 25-79.5 64-28.5 64 28.5zm-242.5 429Q135 648 135 687t25.5 64 64.5 25 64.5-25 25.5-64-25.5-63.5T225 599t-64.5 24.5zm222 0Q357 648 357 687t25.5 64 64.5 25 64.5-25 25.5-64-25.5-63.5T447 599t-64.5 24.5z" glyph-name="odieresis" horiz-adv-x="678" unicode="ö"/><glyph d="M230 493q-32 31-32 79t32 78 80 30 80-30 32-78-32-79-80-31-80 31zM55 435h510V265H55v170zM230 51q-32 31-32 79t32 78 80 30 80-30 32-78-32-79-80-31-80 31z" glyph-name="divide" horiz-adv-x="620" unicode="÷"/><glyph d="M175.5 26.5Q103 63 62 127.5T21 274t41 146.5T175.5 521 339 557q92 0 164.5-36t113-100.5T657 274t-40.5-146.5-113-101T339-10q-91 0-163.5 36.5zm227.5 168q25 28.5 25 79.5t-25 79-64 28-64-28-25-79 25-79.5 64-28.5 64 28.5zM509 610h95L163-70H68z" glyph-name="oslash" horiz-adv-x="678" unicode="ø"/><glyph d="M648 547V0H433v52q-30-31-70-46.5T278-10q-104 0-167 63.5T48 245v302h226V284q0-56 18-80t53-24q33 0 55 26.5t22 83.5v257h226zM106 767h215l132-160H303z" glyph-name="ugrave" horiz-adv-x="698" unicode="ù"/><glyph d="M648 547V0H433v52q-30-31-70-46.5T278-10q-104 0-167 63.5T48 245v302h226V284q0-56 18-80t53-24q33 0 55 26.5t22 83.5v257h226zM375 767h215L393 607H243z" glyph-name="uacute" horiz-adv-x="698" unicode="ú"/><glyph d="M648 547V0H433v52q-30-31-70-46.5T278-10q-104 0-167 63.5T48 245v302h226V284q0-56 18-80t53-24q33 0 55 26.5t22 83.5v257h226zm-216 60-84 77-84-77H124l128 160h192l128-160H432z" glyph-name="ucircumflex" horiz-adv-x="698" unicode="û"/><glyph d="M648 547V0H433v52q-30-31-70-46.5T278-10q-104 0-167 63.5T48 245v302h226V284q0-56 18-80t53-24q33 0 55 26.5t22 83.5v257h226zm-475.5 76.5Q147 648 147 687t25.5 64 64.5 25 64.5-25 25.5-64-25.5-63.5T237 599t-64.5 24.5zm222 0Q369 648 369 687t25.5 64 64.5 25 64.5-25 25.5-64-25.5-63.5T459 599t-64.5 24.5z" glyph-name="udieresis" horiz-adv-x="698" unicode="ü"/><glyph d="M659 547 434-11q-43-107-107-150t-157-43q-46 0-92.5 13.5T4-155L79 0q17-13 38.5-21t41.5-8q37 0 56 22L-15 547h232l113-293 115 293h214zM340 767h215L358 607H208z" glyph-name="yacute" horiz-adv-x="644" unicode="ý"/><glyph d="M547.5 522.5q60.5-34.5 96-99.5T679 273t-35.5-149.5-96-99T415-10q-91 0-139 47v-231H50v936h226V513q48 44 139 44 72 0 132.5-34.5zM425 194q25 28 25 79t-25 79.5-64 28.5-64-28.5-25-79.5 25-79 64-28 64 28z" glyph-name="thorn" horiz-adv-x="700" unicode="þ"/><glyph d="M50 547h226V0H50v547z" glyph-name="dotlessi" horiz-adv-x="326" unicode="ı"/><glyph d="m-94-177 54 157q24-13 51-13 21 0 34 15.5T58 30v517h226V28q0-107-63.5-169.5T45-204q-87 0-139 27z" glyph-name="uni0237" horiz-adv-x="334" unicode="ȷ"/><glyph d="M-542 767h215l132-160h-150z" glyph-name="gravecomb" unicode="̀"/><glyph d="M-273 767h215l-197-160h-150z" glyph-name="acutecomb" unicode="́"/><glyph d="m-216 607-84 77-84-77h-140l128 160h192l128-160h-140z" glyph-name="uni0302" unicode="̂"/><glyph d="M-271 607q-23 10-48 27-17 11-27.5 16.5T-367 656q-19 0-31-13t-14-36h-107q2 80 38.5 126.5T-381 780q29 0 52-10t48-27q17-12 27.5-17t20.5-5q19 0 31 12.5t14 33.5h107q-2-77-38.5-123.5T-219 597q-29 0-52 10z" glyph-name="tildecomb" unicode="̃"/><glyph d="M-510 746h420V628h-420v118z" glyph-name="uni0304" unicode="̄"/><glyph d="M-475.5 623.5Q-501 648-501 687t25.5 64 64.5 25 64.5-25 25.5-64-25.5-63.5T-411 599t-64.5 24.5zm222 0Q-279 648-279 687t25.5 64 64.5 25 64.5-25 25.5-64-25.5-63.5T-189 599t-64.5 24.5z" glyph-name="uni0308" unicode="̈"/><glyph d="M-371 608q-32 18-50.5 48.5T-440 724t18.5 67.5T-371 840t71 18 71-18 50.5-48.5T-160 724t-18.5-67.5T-229 608t-71-18-71 18zm109.5 77q15.5 15 15.5 39t-15.5 39-38.5 15-38.5-15-15.5-39 15.5-39 38.5-15 38.5 15z" glyph-name="uni030A" unicode="̊"/><glyph d="M-395-234q-28 6-44 15l28 83q30-12 60-12 48 0 48 24 0 20-41 20h-41l27 114h116l-14-62q44-6 64.5-28.5T-171-132q0-50-46.5-79T-341-240q-26 0-54 6z" glyph-name="uni0327" unicode="̧"/><glyph d="M-148 610h95L-494-70h-95z" glyph-name="uni0338" unicode="̸"/><glyph d="M650 547V0H455v51q-21-31-51-46t-64-15-64 14v-198H50v741h226V284q0-56 18-80t53-24q33 0 55 26.5t22 83.5v257h226z" glyph-name="uni03BC" horiz-adv-x="700" unicode="μ"/><glyph d="m25 274 138 200h200L230 274 363 74H163z" glyph-name="guilsinglleft" horiz-adv-x="378" unicode="‹"/><glyph d="m15 74 133 200L15 474h200l138-200L215 74H15z" glyph-name="guilsinglright" horiz-adv-x="378" unicode="›"/><glyph d="M253 700h169L-56 0h-169z" glyph-name="fraction" horiz-adv-x="197" unicode="⁄"/><glyph d="M386 111V0H64v111h88v193H74v111h238V111h74z" glyph-name="one.dnom" horiz-adv-x="430"/><glyph d="M401 114V0H35v91l159 136q36 30 36 54 0 13-10 20.5t-30 7.5q-46 0-67-38L7 326q23 45 73 72t124 27q83 0 133.5-36t50.5-96q0-32-17-61.5T308 161l-55-47h148z" glyph-name="two.dnom" horiz-adv-x="430"/><glyph d="M387 209.5q28-31.5 28-75.5 0-38-22.5-70.5t-70.5-53T203-10Q149-10 96 1.5T9 32l52 109q31-17 68-26t70-9q58 0 58 28 0 24-48 24h-72v91l63 55H32v111h358v-91l-83-71q52-12 80-43.5z" glyph-name="three.dnom" horiz-adv-x="430"/><glyph d="M420 68h-50V0H218v68H-1v94l175 253h167L179 182h57v55h134v-55h50V68z" glyph-name="four.dnom" horiz-adv-x="430"/><glyph d="M386 396V285H64v111h88v193H74v111h238V396h74z" glyph-name="one.numr" horiz-adv-x="430"/><glyph d="M387 494.5q28-31.5 28-75.5 0-38-22.5-70.5t-70.5-53T203 275q-54 0-107 11.5T9 317l52 109q31-17 68-26t70-9q58 0 58 28 0 24-48 24h-72v91l63 55H32v111h358v-91l-83-71q52-12 80-43.5z" glyph-name="three.numr" horiz-adv-x="430"/><glyph d="M-475.5 773.5Q-501 798-501 837t25.5 64 64.5 25 64.5-25 25.5-64-25.5-63.5T-411 749t-64.5 24.5zm222 0Q-279 798-279 837t25.5 64 64.5 25 64.5-25 25.5-64-25.5-63.5T-189 749t-64.5 24.5z" glyph-name="uni0308.case"/><glyph d="M-542 917h215l132-160h-150z" glyph-name="gravecomb.case"/><glyph d="M-273 917h215l-197-160h-150z" glyph-name="acutecomb.case"/><glyph d="m-216 757-84 77-84-77h-140l128 160h192l128-160h-140z" glyph-name="uni0302.case"/><glyph d="M-271 757q-23 10-48 27-17 11-27.5 16.5T-367 806q-19 0-31-13t-14-36h-107q2 80 38.5 126.5T-381 930q29 0 52-10t48-27q17-12 27.5-17t20.5-5q19 0 31 12.5t14 33.5h107q-2-77-38.5-123.5T-219 747q-29 0-52 10z" glyph-name="tildecomb.case"/><glyph d="M-535 424h470V288h-470v136z" glyph-name="uni0335.case"/><glyph d="M-167 770h130L-633-70h-130z" glyph-name="uni0338.case"/><glyph d="M-398.5 623.5Q-436 656-436 706t37.5 82.5T-300 821q62 0 99-31t37-80q0-52-37-85.5t-99-33.5q-61 0-98.5 32.5z" glyph-name="uni0307.i"/><glyph d="M-452.5 623.5Q-476 648-476 687t23.5 64 59.5 25q35 0 58.5-25t23.5-64-23.5-63.5T-393 599q-36 0-59.5 24.5zm187 0Q-289 648-289 687t23.5 64 59.5 25q35 0 58.5-25t23.5-64-23.5-63.5T-206 599q-36 0-59.5 24.5z" glyph-name="uni0308.narrow"/><glyph d="m-241 607-59 67-59-67h-140l105 160h188l105-160h-140z" glyph-name="uni0302.narrow"/></font>
</defs>
</svg>
