<svg width="211" height="187" viewBox="0 0 211 187" fill="none" xmlns="http://www.w3.org/2000/svg">
<circle cx="117.5" cy="93.5" r="93.5" fill="#FDCF26"/>
<path d="M105.397 49.833L110.596 40.2734H117.166L109.091 54.0225L117.375 68H110.729L105.397 58.2881L100.065 68H93.4189L101.703 54.0225L93.6284 40.2734H100.198L105.397 49.833ZM127.639 58.3452H116.918V53.9082H127.639V58.3452ZM143.635 52.5562C142.886 52.4546 142.226 52.4038 141.655 52.4038C139.573 52.4038 138.208 53.1084 137.561 54.5176V68H132.057V47.3955H137.256L137.408 49.8521C138.513 47.9604 140.042 47.0146 141.998 47.0146C142.607 47.0146 143.178 47.0972 143.711 47.2622L143.635 52.5562ZM157.67 68C157.416 67.5049 157.232 66.8892 157.118 66.1528C155.785 67.6382 154.052 68.3809 151.919 68.3809C149.9 68.3809 148.225 67.7969 146.892 66.6289C145.571 65.4609 144.911 63.9883 144.911 62.2109C144.911 60.0273 145.717 58.3516 147.33 57.1836C148.955 56.0156 151.297 55.4253 154.356 55.4126H156.889V54.2319C156.889 53.2798 156.642 52.5181 156.146 51.9468C155.664 51.3755 154.896 51.0898 153.842 51.0898C152.916 51.0898 152.186 51.312 151.652 51.7563C151.132 52.2007 150.872 52.8101 150.872 53.5845H145.368C145.368 52.3911 145.736 51.2866 146.473 50.271C147.209 49.2554 148.25 48.4619 149.596 47.8906C150.941 47.3066 152.452 47.0146 154.128 47.0146C156.667 47.0146 158.679 47.6558 160.165 48.938C161.663 50.2075 162.412 51.9976 162.412 54.3081V63.2393C162.424 65.1943 162.697 66.6733 163.23 67.6763V68H157.67ZM153.119 64.1724C153.931 64.1724 154.68 63.9946 155.366 63.6392C156.051 63.271 156.559 62.7822 156.889 62.1729V58.6309H154.833C152.078 58.6309 150.611 59.583 150.434 61.4873L150.415 61.811C150.415 62.4966 150.656 63.0615 151.138 63.5059C151.621 63.9502 152.281 64.1724 153.119 64.1724ZM174.028 60.2114L177.836 47.3955H183.74L175.456 71.1992L174.999 72.2847C173.768 74.9761 171.736 76.3218 168.905 76.3218C168.105 76.3218 167.293 76.2012 166.468 75.96V71.7896L167.306 71.8086C168.347 71.8086 169.121 71.6499 169.629 71.3325C170.149 71.0151 170.556 70.4883 170.848 69.752L171.495 68.0571L164.278 47.3955H170.2L174.028 60.2114Z" fill="#333333"/>
<path d="M78.8712 133L65.5076 110.342C73.7107 103.86 76.5318 99.6472 77.0152 90.655H103C100.803 112.388 95.6457 121.751 78.8712 133Z" stroke="#4F4F4F" stroke-width="8"/>
<path d="M31.3561 90.655C31.8866 99.726 34.44 103.927 41.75 110.342L29.1288 133C12.7436 121.289 7.42212 112.047 5 90.655H31.3561Z" stroke="#4F4F4F" stroke-width="8"/>
<path d="M65.5076 70.5969C56.0537 66.9367 50.8437 66.7899 41.75 70.5969L30.2424 47.9386C49.2332 40.0918 59.8816 39.9494 78.8712 47.9386L65.5076 70.5969Z" stroke="#4F4F4F" stroke-width="8"/>
<ellipse cx="54" cy="91.0265" rx="10.3939" ry="10.4005" stroke="#4F4F4F" stroke-width="8"/>
</svg>
